<svg width="64" height="64" viewBox="0 0 64 64" fill="none" xmlns="http://www.w3.org/2000/svg">
<g clip-path="url(#clip0_715_5277)">
<g clip-path="url(#clip1_715_5277)">
<path d="M32 64C49.6731 64 64 49.6731 64 32C64 14.3269 49.6731 0 32 0C14.3269 0 0 14.3269 0 32C0 49.6731 14.3269 64 32 64Z" fill="#FF8447"/>
<g opacity="0.2">
<path d="M40.7708 19.1922C38.7565 17.2017 36.0908 16.0681 33.2648 16.0031C30.2751 15.9336 27.4514 17.0308 25.3149 19.0931C23.1772 21.1565 22 23.049 22 26C22 27.0072 22 28.6 24 29C26 29.4 27 27.8766 27 26.8694C27.5 25 28.0795 23.3707 29.5 22C30.9193 20.6293 34.5 20.5 36 21C37.5 21.5 39.4089 22.8143 39.5 26.6108C39.5634 29.2997 37.8752 31.1874 35.5 32.5C32.1655 34.3424 30.5 36.7868 30.5 40.5C30.5 42.3276 30.5 44 33.0007 44C35 44 35 41.5061 35 40.5C35 38.1164 36.1934 37.5636 38.3622 36.365C41.9342 34.3916 44.0937 30.6533 43.9969 26.6108C43.9312 23.817 42.7851 21.1827 40.7708 19.1922Z" fill="white"/>
<path d="M40.7708 19.1922C38.7565 17.2017 36.0908 16.0681 33.2648 16.0031C30.2751 15.9336 27.4514 17.0308 25.3149 19.0931C23.1772 21.1565 22 23.049 22 26C22 27.0072 22 28.6 24 29C26 29.4 27 27.8766 27 26.8694C27.5 25 28.0795 23.3707 29.5 22C30.9193 20.6293 34.5 20.5 36 21C37.5 21.5 39.4089 22.8143 39.5 26.6108C39.5634 29.2997 37.8752 31.1874 35.5 32.5C32.1655 34.3424 30.5 36.7868 30.5 40.5C30.5 42.3276 30.5 44 33.0007 44C35 44 35 41.5061 35 40.5C35 38.1164 36.1934 37.5636 38.3622 36.365C41.9342 34.3916 44.0937 30.6533 43.9969 26.6108C43.9312 23.817 42.7851 21.1827 40.7708 19.1922Z" fill="#231F20"/>
<path d="M33.9516 48.0112C33.9344 47.9315 33.9141 47.8518 33.8906 47.7737C33.8672 47.6956 33.8391 47.619 33.8078 47.544C33.7766 47.469 33.7422 47.394 33.7047 47.3222C33.6656 47.2503 33.6234 47.18 33.5781 47.1128C33.5328 47.0441 33.4844 46.9784 33.4328 46.9144C33.3812 46.8519 33.325 46.7894 33.2672 46.7316C33.2094 46.6753 33.1484 46.6191 33.0859 46.5675C33.0219 46.516 32.9563 46.466 32.8875 46.4222C32.8203 46.3769 32.75 46.3347 32.6781 46.2957C32.6063 46.2582 32.5312 46.2222 32.4562 46.191C32.3812 46.1613 32.3031 46.1332 32.2266 46.1098C32.1484 46.0848 32.0688 46.0644 31.9891 46.0488C31.9078 46.0332 31.8266 46.0207 31.7453 46.0129C31.5828 45.9957 31.4172 45.9957 31.2547 46.0129C31.1734 46.0207 31.0922 46.0332 31.0109 46.0488C30.9312 46.0644 30.8516 46.0848 30.7734 46.1098C30.6969 46.1332 30.6188 46.1613 30.5438 46.191C30.4688 46.2222 30.3938 46.2582 30.3219 46.2957C30.25 46.3347 30.1797 46.3769 30.1125 46.4222C30.0437 46.466 29.9781 46.516 29.9141 46.5675C29.8516 46.6191 29.7906 46.6753 29.7328 46.7316C29.675 46.7894 29.6188 46.8519 29.5672 46.9144C29.5156 46.9784 29.4672 47.0441 29.4219 47.1128C29.3766 47.18 29.3344 47.2503 29.2953 47.3222C29.2578 47.394 29.2219 47.469 29.1922 47.544C29.1609 47.619 29.1328 47.6956 29.1094 47.7737C29.0844 47.8518 29.0656 47.9315 29.0484 48.0112C29.0328 48.0908 29.0203 48.1737 29.0125 48.2533C29.0047 48.3361 29 48.4174 29 48.5002C29 48.5814 29.0047 48.6642 29.0125 48.7455C29.0203 48.8267 29.0328 48.908 29.0484 48.9877C29.0656 49.0673 29.0844 49.147 29.1094 49.2251C29.1328 49.3033 29.1609 49.3814 29.1922 49.4564C29.2219 49.5314 29.2578 49.6064 29.2953 49.6767C29.3344 49.7501 29.3766 49.8204 29.4219 49.8876C29.4672 49.9563 29.5156 50.022 29.5672 50.0844C29.6188 50.1485 29.675 50.2094 29.7328 50.2672C29.7906 50.3251 29.8516 50.3813 29.9141 50.4329C29.9781 50.4844 30.0437 50.5328 30.1125 50.5782C30.1797 50.6235 30.25 50.6657 30.3219 50.7031C30.3938 50.7422 30.4688 50.7766 30.5438 50.8078C30.6188 50.8391 30.6969 50.8672 30.7734 50.8906C30.8516 50.9141 30.9312 50.9344 31.0109 50.9516C31.0922 50.9672 31.1734 50.9797 31.2547 50.9875C31.3359 50.9953 31.4188 51 31.5 51C31.5813 51 31.6641 50.9953 31.7453 50.9875C31.8266 50.9797 31.9078 50.9672 31.9891 50.9516C32.0688 50.9344 32.1484 50.9141 32.2266 50.8906C32.3031 50.8672 32.3812 50.8391 32.4562 50.8078C32.5312 50.7766 32.6062 50.7422 32.6766 50.7031C32.7484 50.6657 32.8203 50.6235 32.8875 50.5782C32.9563 50.5328 33.0219 50.4844 33.0844 50.4329C33.1484 50.3813 33.2094 50.3251 33.2672 50.2672C33.325 50.2094 33.3812 50.1485 33.4328 50.0844C33.4844 50.022 33.5328 49.9563 33.5781 49.8876C33.6234 49.8204 33.6656 49.7501 33.7047 49.6767C33.7422 49.6064 33.7766 49.5314 33.8078 49.4564C33.8391 49.3814 33.8672 49.3033 33.8906 49.2251C33.9141 49.147 33.9344 49.0673 33.9516 48.9877C33.9672 48.908 33.9797 48.8267 33.9875 48.7455C33.9953 48.6642 34 48.5814 34 48.5002C34 48.4174 33.9953 48.3361 33.9875 48.2533C33.9797 48.1737 33.9672 48.0908 33.9516 48.0112Z" fill="white"/>
<path d="M33.9516 48.0112C33.9344 47.9315 33.9141 47.8518 33.8906 47.7737C33.8672 47.6956 33.8391 47.619 33.8078 47.544C33.7766 47.469 33.7422 47.394 33.7047 47.3222C33.6656 47.2503 33.6234 47.18 33.5781 47.1128C33.5328 47.0441 33.4844 46.9784 33.4328 46.9144C33.3812 46.8519 33.325 46.7894 33.2672 46.7316C33.2094 46.6753 33.1484 46.6191 33.0859 46.5675C33.0219 46.516 32.9563 46.466 32.8875 46.4222C32.8203 46.3769 32.75 46.3347 32.6781 46.2957C32.6063 46.2582 32.5312 46.2222 32.4562 46.191C32.3812 46.1613 32.3031 46.1332 32.2266 46.1098C32.1484 46.0848 32.0688 46.0644 31.9891 46.0488C31.9078 46.0332 31.8266 46.0207 31.7453 46.0129C31.5828 45.9957 31.4172 45.9957 31.2547 46.0129C31.1734 46.0207 31.0922 46.0332 31.0109 46.0488C30.9312 46.0644 30.8516 46.0848 30.7734 46.1098C30.6969 46.1332 30.6188 46.1613 30.5438 46.191C30.4688 46.2222 30.3938 46.2582 30.3219 46.2957C30.25 46.3347 30.1797 46.3769 30.1125 46.4222C30.0437 46.466 29.9781 46.516 29.9141 46.5675C29.8516 46.6191 29.7906 46.6753 29.7328 46.7316C29.675 46.7894 29.6188 46.8519 29.5672 46.9144C29.5156 46.9784 29.4672 47.0441 29.4219 47.1128C29.3766 47.18 29.3344 47.2503 29.2953 47.3222C29.2578 47.394 29.2219 47.469 29.1922 47.544C29.1609 47.619 29.1328 47.6956 29.1094 47.7737C29.0844 47.8518 29.0656 47.9315 29.0484 48.0112C29.0328 48.0908 29.0203 48.1737 29.0125 48.2533C29.0047 48.3361 29 48.4174 29 48.5002C29 48.5814 29.0047 48.6642 29.0125 48.7455C29.0203 48.8267 29.0328 48.908 29.0484 48.9877C29.0656 49.0673 29.0844 49.147 29.1094 49.2251C29.1328 49.3033 29.1609 49.3814 29.1922 49.4564C29.2219 49.5314 29.2578 49.6064 29.2953 49.6767C29.3344 49.7501 29.3766 49.8204 29.4219 49.8876C29.4672 49.9563 29.5156 50.022 29.5672 50.0844C29.6188 50.1485 29.675 50.2094 29.7328 50.2672C29.7906 50.3251 29.8516 50.3813 29.9141 50.4329C29.9781 50.4844 30.0437 50.5328 30.1125 50.5782C30.1797 50.6235 30.25 50.6657 30.3219 50.7031C30.3938 50.7422 30.4688 50.7766 30.5438 50.8078C30.6188 50.8391 30.6969 50.8672 30.7734 50.8906C30.8516 50.9141 30.9312 50.9344 31.0109 50.9516C31.0922 50.9672 31.1734 50.9797 31.2547 50.9875C31.3359 50.9953 31.4188 51 31.5 51C31.5813 51 31.6641 50.9953 31.7453 50.9875C31.8266 50.9797 31.9078 50.9672 31.9891 50.9516C32.0688 50.9344 32.1484 50.9141 32.2266 50.8906C32.3031 50.8672 32.3812 50.8391 32.4562 50.8078C32.5312 50.7766 32.6062 50.7422 32.6766 50.7031C32.7484 50.6657 32.8203 50.6235 32.8875 50.5782C32.9563 50.5328 33.0219 50.4844 33.0844 50.4329C33.1484 50.3813 33.2094 50.3251 33.2672 50.2672C33.325 50.2094 33.3812 50.1485 33.4328 50.0844C33.4844 50.022 33.5328 49.9563 33.5781 49.8876C33.6234 49.8204 33.6656 49.7501 33.7047 49.6767C33.7422 49.6064 33.7766 49.5314 33.8078 49.4564C33.8391 49.3814 33.8672 49.3033 33.8906 49.2251C33.9141 49.147 33.9344 49.0673 33.9516 48.9877C33.9672 48.908 33.9797 48.8267 33.9875 48.7455C33.9953 48.6642 34 48.5814 34 48.5002C34 48.4174 33.9953 48.3361 33.9875 48.2533C33.9797 48.1737 33.9672 48.0908 33.9516 48.0112Z" fill="#231F20"/>
</g>
<path d="M39.7708 18.1922C37.7565 16.2017 35.0908 15.0681 32.2648 15.0031C29.2751 14.9336 26.4514 16.0308 24.3149 18.0931C22.1772 20.1565 21 22.049 21 25C21 26.0072 21 27.6 23 28C25 28.4 26 26.8766 26 25.8694C26.5 24 27.0795 22.3707 28.5 21C29.9193 19.6293 33.5 19.5 35 20C36.5 20.5 38.4089 21.8143 38.5 25.6108C38.5634 28.2997 36.8752 30.1874 34.5 31.5C31.1655 33.3424 29.5 35.7868 29.5 39.5C29.5 41.3276 29.5 43 32.0007 43C34 43 34 40.5061 34 39.5C34 37.1164 35.1934 36.5636 37.3622 35.365C40.9342 33.3916 43.0937 29.6533 42.9969 25.6108C42.9312 22.817 41.7851 20.1827 39.7708 18.1922Z" fill="white"/>
<path d="M33.9516 47.0112C33.9344 46.9315 33.9141 46.8518 33.8906 46.7737C33.8672 46.6956 33.8391 46.619 33.8078 46.544C33.7766 46.469 33.7422 46.394 33.7047 46.3222C33.6656 46.2503 33.6234 46.18 33.5781 46.1128C33.5328 46.0441 33.4844 45.9784 33.4328 45.9144C33.3812 45.8519 33.325 45.7894 33.2672 45.7316C33.2094 45.6753 33.1484 45.6191 33.0859 45.5675C33.0219 45.516 32.9563 45.466 32.8875 45.4222C32.8203 45.3769 32.75 45.3347 32.6781 45.2957C32.6063 45.2582 32.5312 45.2222 32.4562 45.191C32.3812 45.1613 32.3031 45.1332 32.2266 45.1098C32.1484 45.0848 32.0688 45.0644 31.9891 45.0488C31.9078 45.0332 31.8266 45.0207 31.7453 45.0129C31.5828 44.9957 31.4172 44.9957 31.2547 45.0129C31.1734 45.0207 31.0922 45.0332 31.0109 45.0488C30.9312 45.0644 30.8516 45.0848 30.7734 45.1098C30.6969 45.1332 30.6188 45.1613 30.5438 45.191C30.4688 45.2222 30.3938 45.2582 30.3219 45.2957C30.25 45.3347 30.1797 45.3769 30.1125 45.4222C30.0437 45.466 29.9781 45.516 29.9141 45.5675C29.8516 45.6191 29.7906 45.6753 29.7328 45.7316C29.675 45.7894 29.6188 45.8519 29.5672 45.9144C29.5156 45.9784 29.4672 46.0441 29.4219 46.1128C29.3766 46.18 29.3344 46.2503 29.2953 46.3222C29.2578 46.394 29.2219 46.469 29.1922 46.544C29.1609 46.619 29.1328 46.6956 29.1094 46.7737C29.0844 46.8518 29.0656 46.9315 29.0484 47.0112C29.0328 47.0908 29.0203 47.1737 29.0125 47.2533C29.0047 47.3361 29 47.4174 29 47.5002C29 47.5814 29.0047 47.6642 29.0125 47.7455C29.0203 47.8267 29.0328 47.908 29.0484 47.9877C29.0656 48.0673 29.0844 48.147 29.1094 48.2251C29.1328 48.3033 29.1609 48.3814 29.1922 48.4564C29.2219 48.5314 29.2578 48.6064 29.2953 48.6767C29.3344 48.7501 29.3766 48.8204 29.4219 48.8876C29.4672 48.9563 29.5156 49.022 29.5672 49.0844C29.6188 49.1485 29.675 49.2094 29.7328 49.2672C29.7906 49.3251 29.8516 49.3813 29.9141 49.4329C29.9781 49.4844 30.0437 49.5328 30.1125 49.5782C30.1797 49.6235 30.25 49.6657 30.3219 49.7031C30.3938 49.7422 30.4688 49.7766 30.5438 49.8078C30.6188 49.8391 30.6969 49.8672 30.7734 49.8906C30.8516 49.9141 30.9312 49.9344 31.0109 49.9516C31.0922 49.9672 31.1734 49.9797 31.2547 49.9875C31.3359 49.9953 31.4188 50 31.5 50C31.5812 50 31.6641 49.9953 31.7453 49.9875C31.8266 49.9797 31.9078 49.9672 31.9891 49.9516C32.0688 49.9344 32.1484 49.9141 32.2266 49.8906C32.3031 49.8672 32.3812 49.8391 32.4562 49.8078C32.5312 49.7766 32.6062 49.7422 32.6766 49.7031C32.7484 49.6657 32.8203 49.6235 32.8875 49.5782C32.9563 49.5328 33.0219 49.4844 33.0844 49.4329C33.1484 49.3813 33.2094 49.3251 33.2672 49.2672C33.325 49.2094 33.3812 49.1485 33.4328 49.0844C33.4844 49.022 33.5328 48.9563 33.5781 48.8876C33.6234 48.8204 33.6656 48.7501 33.7047 48.6767C33.7422 48.6064 33.7766 48.5314 33.8078 48.4564C33.8391 48.3814 33.8672 48.3033 33.8906 48.2251C33.9141 48.147 33.9344 48.0673 33.9516 47.9877C33.9672 47.908 33.9797 47.8267 33.9875 47.7455C33.9953 47.6642 34 47.5814 34 47.5002C34 47.4174 33.9953 47.3361 33.9875 47.2533C33.9797 47.1737 33.9672 47.0908 33.9516 47.0112Z" fill="white"/>
</g>
</g>
<defs>
<clipPath id="clip0_715_5277">
<rect width="64" height="64" fill="white"/>
</clipPath>
<clipPath id="clip1_715_5277">
<rect width="64" height="64" fill="white"/>
</clipPath>
</defs>
</svg>
