<svg width="64" height="64" viewBox="0 0 64 64" fill="none" xmlns="http://www.w3.org/2000/svg">
<g clip-path="url(#clip0_245_33789)">
<path d="M32 64C49.6731 64 64 49.6731 64 32C64 14.3269 49.6731 0 32 0C14.3269 0 0 14.3269 0 32C0 49.6731 14.3269 64 32 64Z" fill="#DD1940"/>
<g opacity="0.2">
<path d="M16.954 49.9996C12.554 49.9996 10.754 46.8816 12.954 43.0716L28 17.0116C30.2 13.2006 33.8 13.2006 36 17.0116L51.046 43.0716C53.246 46.8826 51.446 49.9996 47.046 49.9996H16.954Z" fill="#231F20"/>
</g>
<path d="M16.954 47.9996C12.554 47.9996 10.754 44.8816 12.954 41.0716L28 15.0116C30.2 11.2006 33.8 11.2006 36 15.0116L51.046 41.0716C53.246 44.8826 51.446 47.9996 47.046 47.9996H16.954Z" fill="#F5CF87"/>
<path d="M34 32C34 33.105 33.105 34 32 34C30.895 34 30 33.105 30 32V24C30 22.895 30.895 22 32 22C33.105 22 34 22.895 34 24V32Z" fill="#4F5D73"/>
<path d="M34 40C34 41.105 33.105 42 32 42C30.895 42 30 41.105 30 40C30 38.895 30.895 38 32 38C33.105 38 34 38.895 34 40Z" fill="#4F5D73"/>
</g>
<defs>
<clipPath id="clip0_245_33789">
<rect width="64" height="64" fill="white"/>
</clipPath>
</defs>
</svg>
